<svg version="1.1" id="Layer_1" xmlns="http://www.w3.org/2000/svg" xmlns:xlink="http://www.w3.org/1999/xlink" x="0px" y="0px"
	 width="100%" viewBox="0 0 1024 1024" enable-background="new 0 0 1024 1024" xml:space="preserve">
<path fill="none" opacity="1.000000" stroke="none"
		d="
M603.000000,1025.000000
	C402.000000,1025.000000 201.500000,1025.000000 1.000000,1025.000000
	C1.000000,683.666687 1.000000,342.333344 1.000000,1.000000
	C342.333344,1.000000 683.666687,1.000000 1025.000000,1.000000
	C1025.000000,342.333344 1025.000000,683.666687 1025.000000,1025.000000
	C884.500000,1025.000000 744.000000,1025.000000 603.000000,1025.000000
M806.562317,382.833801
	C805.966797,383.140961 805.371338,383.448151 804.097595,383.923157
	C778.221008,400.018921 750.614624,411.842957 720.650024,417.910217
	C721.123779,417.078918 721.742310,416.522064 722.467102,416.265411
	C750.673218,406.279175 776.491394,391.817932 799.776489,373.197968
	C810.880737,364.318512 821.755920,354.600220 830.519897,343.511292
	C838.349854,333.604218 843.148438,321.297852 849.235535,310.023712
	C849.696411,309.170197 849.765320,308.105103 850.180786,306.506012
	C847.982666,307.616028 846.492493,308.333984 845.033508,309.110413
	C816.963440,324.047913 787.533691,335.400970 756.469727,342.300751
	C747.732849,344.241272 738.832520,345.445984 730.033691,347.027649
	C730.033691,347.027649 730.069580,347.059357 730.397461,346.413483
	C731.819641,345.947266 733.236206,345.463043 734.664795,345.017456
	C780.145569,330.831573 823.191040,311.748596 860.863525,281.967499
	C863.090942,280.206665 865.291565,277.699829 866.192383,275.087646
	C872.427673,257.006073 879.190979,239.039505 884.137878,220.594315
	C895.752380,177.287415 899.931152,133.149704 896.143860,88.368210
	C895.844360,84.827171 895.450256,81.294136 895.004822,76.794533
	C893.888672,78.225075 893.501709,78.721046 892.555847,79.554077
	C877.860779,95.565483 861.765381,110.017006 842.599487,120.393166
	C829.794434,127.325653 816.224243,132.844757 802.241516,139.027191
	C784.809937,144.313873 767.378296,149.600555 749.273560,154.867203
	C748.849731,155.005539 748.425903,155.143890 747.447021,155.239731
	C746.954712,155.473267 746.462341,155.706802 745.174866,155.926666
	C737.447693,158.013947 729.720581,160.101212 721.429077,162.140350
	C720.933044,162.379822 720.437073,162.619293 719.266418,162.845581
	C718.841858,162.985092 718.417236,163.124603 717.234009,163.277740
	C712.250549,164.606323 707.335327,166.363770 702.268738,167.169342
	C693.253479,168.602753 687.483093,173.509995 682.394287,181.058090
	C664.684998,207.325790 648.279419,234.296692 634.158264,263.360596
	C625.340454,282.792480 616.539978,302.232269 607.664734,321.637878
	C607.094849,322.883942 605.947205,323.865753 605.115295,324.140076
	C605.039368,322.758545 604.963440,321.377045 605.312805,319.252075
	C606.193604,311.834259 607.074402,304.416443 608.171509,296.373566
	C608.158752,295.936310 608.145996,295.499054 608.483643,294.352661
	C608.986267,290.220367 609.488892,286.088074 610.303650,281.252350
	C614.506775,260.340576 619.754272,239.713913 627.923645,219.959030
	C632.176514,209.674713 636.906067,199.587509 641.677124,189.104797
	C641.607727,188.875000 641.538391,188.645203 641.468994,188.415421
	C641.280090,188.573608 641.091125,188.731812 640.150208,188.891449
	C635.838135,190.624557 631.470703,192.232452 627.223206,194.111420
	C602.871399,204.883896 579.492065,217.404953 557.201477,233.197021
	C547.464661,240.463211 537.727905,247.729401 527.357727,255.222397
	C517.906982,263.188873 508.456268,271.155365 498.400818,279.377045
	C487.270569,289.908173 476.140320,300.439270 464.456482,311.057587
	C464.234772,311.350189 464.013092,311.642792 463.286896,312.146362
	C462.830750,312.701111 462.374634,313.255829 461.313568,314.126434
	C446.317871,330.328064 431.274200,346.485748 416.356262,362.758698
	C411.992706,367.518646 407.987000,372.606659 403.206299,377.971161
	C402.562592,379.315033 401.606964,380.596100 401.322052,382.012146
	C397.154968,402.724915 392.266296,423.335754 389.178253,444.211792
	C385.066101,472.011353 386.344788,500.067932 387.900024,528.051514
	C387.990265,529.675232 387.337311,531.340271 386.946899,532.265747
	C368.941833,495.013611 364.395660,455.236572 365.272888,413.060028
	C358.032410,421.996521 351.240723,429.550385 345.393219,437.775452
	C334.513977,453.078278 324.184906,468.772217 313.089630,484.763885
	C305.483032,498.571838 297.376221,512.131836 290.383087,526.243835
	C278.904236,549.408020 269.471558,573.409119 263.371063,598.637573
	C262.405273,602.631653 263.205841,604.737549 267.004456,606.359436
	C274.503693,609.561462 281.687225,613.539917 289.278717,616.481445
	C308.438599,623.905334 327.752289,630.932251 347.579376,638.559631
	C354.555756,640.723389 361.497131,643.015381 368.539307,644.938416
	C369.884216,645.305664 372.222717,644.728394 373.088501,643.717834
	C378.592316,637.293823 383.811523,630.626038 389.649902,623.795654
	C390.095581,623.182251 390.541229,622.568848 391.510651,621.638123
	C391.704163,621.099304 391.897675,620.560425 392.419861,619.444824
	C395.340332,616.099548 398.234863,612.731201 401.185913,609.413147
	C411.404083,597.924561 421.641968,586.453430 431.959839,574.972412
	C431.959839,574.972412 431.951630,574.885254 432.496246,574.579407
	C433.143005,573.764221 433.789764,572.949036 434.986145,571.807373
	C437.311676,569.160400 439.637177,566.513428 442.511169,563.571228
	C443.159424,562.759644 443.807709,561.947998 445.012207,560.809570
	C451.684387,553.543701 458.356567,546.277832 465.611847,538.707458
	C467.781219,536.328979 469.950562,533.950500 472.703033,531.200684
	C472.845306,530.787354 472.987549,530.374023 473.517975,529.441833
	C483.257294,519.947510 492.928406,510.381989 502.750488,500.974060
	C521.831726,482.697266 540.997803,464.509003 560.743286,445.988708
	C575.535400,432.464905 590.327454,418.941071 605.737427,405.102783
	C612.638794,398.927185 619.552979,392.765778 626.439148,386.573273
	C645.347046,369.569916 664.243225,352.553497 683.767456,335.208313
	C688.471130,330.744904 693.091492,326.189636 697.894897,321.836365
	C709.575317,311.250458 721.340759,300.758331 733.616455,290.004547
	C733.858276,289.701508 734.100037,289.398468 734.832581,288.939758
	C735.266418,288.425812 735.700256,287.911865 736.748230,287.083038
	C769.712158,256.594025 801.821777,225.269409 830.910645,190.980606
	C831.673523,190.081329 832.973999,189.638016 834.097351,189.692017
	C832.868286,191.469177 831.679199,193.275528 830.404419,195.019257
	C798.458313,238.715668 761.440613,277.967651 723.473022,316.334961
	C651.431030,389.135406 579.005005,461.556152 507.055481,534.447449
	C491.873779,549.827881 478.054810,566.553345 463.055328,582.979736
	C443.122375,606.405029 423.189392,629.830322 402.505707,654.137817
	C411.704468,656.120300 419.598938,657.960327 427.549530,659.513000
	C482.635925,670.270386 538.127625,676.688782 594.376953,675.065247
	C597.760986,674.967529 599.829956,674.201965 601.094055,670.730469
	C602.854309,665.896729 605.312317,661.319031 607.429443,656.612732
	C610.443054,649.913635 613.418213,643.197205 616.504395,636.276123
	C606.696594,637.724487 597.523926,639.361206 588.282410,640.364502
	C579.018921,641.370056 569.695496,642.024780 560.382202,642.314880
	C551.064453,642.605164 541.720825,642.436523 532.399597,642.132141
	C523.352661,641.836731 514.319824,641.113403 505.280762,640.578003
	C505.299866,640.142761 505.318970,639.707520 505.338104,639.272217
	C515.264160,637.179932 525.230774,635.261597 535.107361,632.957581
	C553.088074,628.762939 571.015320,624.339355 589.765930,620.045532
	C604.895569,616.550049 619.631897,612.030945 633.331055,604.457275
	C653.380981,593.372437 670.030090,578.249878 683.343140,559.929993
	C701.046570,535.568481 717.413391,510.240448 734.643677,485.529297
	C758.167542,451.792175 781.963867,418.244995 806.054443,384.290039
	C806.404663,383.895020 806.754883,383.500031 807.171387,382.844849
	C807.174011,382.953064 807.176697,383.061249 806.562317,382.833801
M112.176704,548.744507
	C116.453857,552.162415 120.731018,555.580383 125.387810,559.543579
	C133.567383,565.364319 141.746948,571.185120 150.348877,577.535645
	C193.418884,606.142334 240.689484,626.064941 288.617218,644.708496
	C249.902679,622.390991 212.072540,598.978638 180.284424,566.170044
	C179.250870,565.094604 178.217316,564.019165 176.990814,562.384460
	C176.695831,562.130249 176.400848,561.876099 175.886002,561.046387
	C174.651657,559.677917 173.417313,558.309387 171.989624,556.379578
	C171.696884,556.120911 171.404160,555.862244 170.906006,554.984436
	C168.685150,551.956238 166.464310,548.928040 164.071152,545.209961
	C161.650421,540.817932 159.229691,536.425903 156.701538,531.312317
	C155.123077,526.874146 153.544617,522.435974 152.239288,517.218445
	C152.099792,516.135437 151.960297,515.052429 151.834290,513.463562
	C151.570663,513.260742 151.307022,513.057983 151.040848,511.958221
	C151.333099,507.971863 151.625336,503.985535 152.185608,499.273010
	C154.169388,489.375946 158.937210,480.855133 165.733521,472.747284
	C176.686295,460.731964 189.561111,451.262360 204.713730,443.881165
	C214.765594,439.548584 224.663940,434.807739 234.897934,430.959534
	C266.424683,419.104736 299.190826,412.169678 332.406799,407.125214
	C334.031067,406.878540 335.537292,405.854431 337.789948,405.066620
	C339.913452,403.227142 342.036957,401.387695 344.160461,399.548218
	C343.971191,399.111145 343.781921,398.674042 343.592651,398.236969
	C341.145233,398.236969 338.696991,398.279388 336.250549,398.230499
	C304.767609,397.601440 273.349243,398.536407 242.045349,402.159546
	C206.409668,406.284088 171.308105,412.846344 137.765213,426.025940
	C119.708618,433.120728 102.430801,441.729706 88.691620,455.914215
	C78.690369,466.239624 74.346992,478.507080 77.230614,493.664734
	C77.581017,495.116394 77.931412,496.568054 78.272118,498.758606
	C81.237747,505.310638 84.203377,511.862640 87.238152,518.712158
	C87.238152,518.712158 87.457253,518.924927 87.592461,519.649170
	C88.014084,520.218933 88.435707,520.788696 88.917938,522.020752
	C90.775162,524.384399 92.632393,526.747986 94.741577,529.680603
	C95.160019,530.124695 95.578468,530.568848 96.172005,531.581909
	C96.979248,532.443909 97.786491,533.305908 98.887718,534.790771
	C103.238571,539.232544 107.589417,543.674255 112.176704,548.744507
M841.422668,542.106018
	C846.824829,549.890930 852.819519,557.338623 857.487793,565.541199
	C864.197815,577.331055 867.692078,590.148376 865.428650,603.936768
	C863.022034,618.597046 854.355652,629.328979 843.364990,638.535767
	C826.782166,652.427063 807.536011,661.515686 787.478394,668.958862
	C739.609192,686.722534 689.678101,694.597168 639.104431,698.945312
	C614.977173,701.019714 590.771362,702.181152 567.391602,703.704651
	C570.015076,704.003296 573.465576,704.541382 576.936401,704.769714
	C643.681396,709.160889 710.402039,710.680237 777.043457,703.010315
	C814.191284,698.734924 850.830933,692.114319 886.059998,679.141296
	C902.858826,672.955261 918.998108,665.427612 932.471130,653.283447
	C945.542358,641.501465 953.148926,627.271118 948.633667,609.302368
	C946.597717,601.200134 943.084839,593.220703 938.901917,585.957336
	C929.894043,570.316162 916.965271,557.950867 903.020203,546.709229
	C870.966492,520.869507 834.518860,502.628540 797.183960,485.974701
	C788.411011,482.061401 779.502563,478.451904 770.399841,474.593872
	C768.856262,477.840149 767.522156,480.645996 766.059753,483.721619
	C793.675720,499.739899 819.514038,517.829651 841.422668,542.106018
M316.912933,768.394409
	C275.666382,823.818848 238.049881,881.654419 202.588394,941.059265
	C203.865494,940.487305 204.946609,939.672485 205.802673,938.666260
	C235.376587,903.903381 265.041473,869.216736 294.419403,834.288818
	C303.777161,823.163208 314.803436,814.730408 328.452759,809.809509
	C335.178162,807.384949 341.862976,804.585205 348.809998,803.083008
	C380.692078,796.188538 412.640869,789.597107 444.602570,783.077576
	C483.889130,775.063721 519.347351,759.280884 549.290039,732.123169
	C550.171204,731.323914 550.935303,730.395569 552.104065,729.156311
	C492.071899,722.379517 433.367371,712.364319 375.605042,697.197632
	C372.548431,696.395020 370.755402,697.199585 368.887787,699.681885
	C351.764526,722.440674 334.522003,745.109619 316.912933,768.394409
M256.218170,668.254639
	C259.229675,702.892334 265.868591,736.810364 275.874359,770.755066
	C297.242920,742.421021 318.038269,714.846924 338.777588,687.347168
	C311.101135,677.347351 283.627136,667.420654 256.162476,657.497375
	C256.162476,660.687805 256.162476,664.002441 256.218170,668.254639
z" />
<path fill="#D43072" opacity="1.000000" stroke="none"
		d="
M463.607910,582.659058
	C478.054810,566.553345 491.873779,549.827881 507.055481,534.447449
	C579.005005,461.556152 651.431030,389.135406 723.473022,316.334961
	C761.440613,277.967651 798.458313,238.715668 830.404419,195.019257
	C831.679199,193.275528 832.868286,191.469177 834.051147,189.358887
	C834.004944,189.025772 833.957153,189.014633 834.299072,189.008835
	C835.092957,188.002579 835.544861,187.002121 836.133545,185.693344
	C842.050110,177.148865 847.953735,168.996307 853.585205,160.659973
	C867.284363,140.380676 879.028259,119.021988 888.229858,96.323807
	C889.566650,93.026413 890.032104,89.375839 890.982422,85.548538
	C891.747620,83.211243 892.431152,81.214127 893.114746,79.217010
	C893.501709,78.721046 893.888672,78.225075 895.004822,76.794533
	C895.450256,81.294136 895.844360,84.827171 896.143860,88.368210
	C899.931152,133.149704 895.752380,177.287415 884.137878,220.594315
	C879.190979,239.039505 872.427673,257.006073 866.192383,275.087646
	C865.291565,277.699829 863.090942,280.206665 860.863525,281.967499
	C823.191040,311.748596 780.145569,330.831573 734.664795,345.017456
	C733.236206,345.463043 731.819641,345.947266 729.961975,346.739868
	C729.063416,347.132843 728.600403,347.199493 728.137329,347.266144
	C728.195190,347.438843 728.252991,347.611572 728.310791,347.784302
	C728.876282,347.518951 729.441772,347.253601 730.007202,346.988220
	C738.832520,345.445984 747.732849,344.241272 756.469727,342.300751
	C787.533691,335.400970 816.963440,324.047913 845.033508,309.110413
	C846.492493,308.333984 847.982666,307.616028 850.180786,306.506012
	C849.765320,308.105103 849.696411,309.170197 849.235535,310.023712
	C843.148438,321.297852 838.349854,333.604218 830.519897,343.511292
	C821.755920,354.600220 810.880737,364.318512 799.776489,373.197968
	C776.491394,391.817932 750.673218,406.279175 722.467102,416.265411
	C721.742310,416.522064 721.123779,417.078918 720.650024,417.910217
	C750.614624,411.842957 778.221008,400.018921 804.645508,384.062622
	C805.343506,384.340179 805.493469,384.478302 805.643372,384.616394
	C781.963867,418.244995 758.167542,451.792175 734.643677,485.529297
	C717.413391,510.240448 701.046570,535.568481 683.343140,559.929993
	C670.030090,578.249878 653.380981,593.372437 633.331055,604.457275
	C619.631897,612.030945 604.895569,616.550049 588.901367,620.047913
	C577.752258,619.729980 567.399353,620.053345 557.196289,618.967773
	C527.652405,615.824158 500.686859,604.728577 474.806580,590.750671
	C470.788849,588.580811 467.326874,585.381958 463.607910,582.659058
z" />
<path fill="#813872" opacity="1.000000" stroke="none"
		d="
M841.188721,541.838745
	C819.514038,517.829651 793.675720,499.739899 766.059753,483.721619
	C767.522156,480.645996 768.856262,477.840149 770.399841,474.593872
	C779.502563,478.451904 788.411011,482.061401 797.183960,485.974701
	C834.518860,502.628540 870.966492,520.869507 903.020203,546.709229
	C916.965271,557.950867 929.894043,570.316162 938.901917,585.957336
	C943.084839,593.220703 946.597717,601.200134 948.633667,609.302368
	C953.148926,627.271118 945.542358,641.501465 932.471130,653.283447
	C918.998108,665.427612 902.858826,672.955261 886.059998,679.141296
	C850.830933,692.114319 814.191284,698.734924 777.043457,703.010315
	C710.402039,710.680237 643.681396,709.160889 576.936401,704.769714
	C573.465576,704.541382 570.015076,704.003296 567.391602,703.704651
	C590.771362,702.181152 614.977173,701.019714 639.104431,698.945312
	C689.678101,694.597168 739.609192,686.722534 787.478394,668.958862
	C807.536011,661.515686 826.782166,652.427063 843.364990,638.535767
	C854.355652,629.328979 863.022034,618.597046 865.428650,603.936768
	C867.692078,590.148376 864.197815,577.331055 857.487793,565.541199
	C852.819519,557.338623 846.824829,549.890930 841.188721,541.838745
z" />
<path fill="#803972" opacity="1.000000" stroke="none"
		d="
M317.113586,768.099609
	C334.522003,745.109619 351.764526,722.440674 368.887787,699.681885
	C370.755402,697.199585 372.548431,696.395020 375.605042,697.197632
	C433.367371,712.364319 492.071899,722.379517 552.104065,729.156311
	C550.935303,730.395569 550.171204,731.323914 549.290039,732.123169
	C519.347351,759.280884 483.889130,775.063721 444.602570,783.077576
	C412.640869,789.597107 380.692078,796.188538 348.809998,803.083008
	C341.862976,804.585205 335.178162,807.384949 328.452759,809.809509
	C314.803436,814.730408 303.777161,823.163208 294.419403,834.288818
	C265.041473,869.216736 235.376587,903.903381 205.802673,938.666260
	C204.946609,939.672485 203.865494,940.487305 202.588394,941.059265
	C238.049881,881.654419 275.666382,823.818848 317.113586,768.099609
z" />
<path fill="#EB473C" opacity="1.000000" stroke="none"
		d="
M313.626831,484.303345
	C324.184906,468.772217 334.513977,453.078278 345.393219,437.775452
	C351.240723,429.550385 358.032410,421.996521 365.272888,413.060028
	C364.395660,455.236572 368.941833,495.013611 386.607056,532.640869
	C381.817291,534.344727 384.726929,536.771118 385.476044,538.766418
	C386.913300,542.594482 389.413727,546.272400 389.829956,550.187317
	C391.000061,561.193359 391.725586,572.282227 391.892212,583.349487
	C392.065094,594.832825 393.791351,606.591370 387.533630,617.405273
	C386.504883,619.183044 385.309448,622.636169 389.124512,624.038513
	C383.811523,630.626038 378.592316,637.293823 373.088501,643.717834
	C372.222717,644.728394 369.884216,645.305664 368.539307,644.938416
	C361.497131,643.015381 354.555756,640.723389 347.286621,637.951660
	C344.325623,631.765442 343.049713,625.952881 343.913849,619.745667
	C343.998047,619.140930 343.601532,618.470093 343.431183,617.829102
	C342.288269,613.528748 340.880310,609.277649 340.068604,604.915649
	C338.957764,598.945923 338.589722,592.831909 337.360352,586.892212
	C336.303009,581.783325 334.252716,576.885498 333.076447,571.793884
	C332.152283,567.793518 332.000702,563.621338 331.311096,559.558594
	C330.294434,553.569336 328.948242,547.633484 328.027679,541.631104
	C326.851044,533.958984 326.155304,526.210754 324.890259,518.555237
	C323.489685,510.079834 321.487640,501.702728 320.134308,493.221130
	C319.504852,489.276245 321.292480,484.102112 314.173157,485.095001
	C314.030609,485.114868 313.810699,484.579620 313.626831,484.303345
z" />
<path fill="#813872" opacity="1.000000" stroke="none"
		d="
M463.331604,582.819336
	C467.326874,585.381958 470.788849,588.580811 474.806580,590.750671
	C500.686859,604.728577 527.652405,615.824158 557.196289,618.967773
	C567.399353,620.053345 577.752258,619.729980 588.500854,620.030762
	C571.015320,624.339355 553.088074,628.762939 535.107361,632.957581
	C525.230774,635.261597 515.264160,637.179932 505.338104,639.272217
	C505.318970,639.707520 505.299866,640.142761 505.280762,640.578003
	C514.319824,641.113403 523.352661,641.836731 532.399597,642.132141
	C541.720825,642.436523 551.064453,642.605164 560.382202,642.314880
	C569.695496,642.024780 579.018921,641.370056 588.282410,640.364502
	C597.523926,639.361206 606.696594,637.724487 616.504395,636.276123
	C613.418213,643.197205 610.443054,649.913635 607.429443,656.612732
	C605.312317,661.319031 602.854309,665.896729 601.094055,670.730469
	C599.829956,674.201965 597.760986,674.967529 594.376953,675.065247
	C538.127625,676.688782 482.635925,670.270386 427.549530,659.513000
	C419.598938,657.960327 411.704468,656.120300 402.505707,654.137817
	C423.189392,629.830322 443.122375,606.405029 463.331604,582.819336
z" />
<path fill="#EE6834" opacity="1.000000" stroke="none"
		d="
M472.119904,531.571960
	C469.950562,533.950500 467.781219,536.328979 465.017181,538.707153
	C464.167542,537.711853 463.567780,536.661377 463.717468,535.731506
	C464.357849,531.752930 466.038788,527.770752 465.851379,523.861267
	C465.205261,510.382935 463.998352,496.929077 462.852478,483.478943
	C462.604340,480.566254 462.659668,476.146027 460.952606,475.120148
	C456.042664,472.169373 453.451172,468.700775 454.032288,462.634888
	C457.711884,455.181610 461.353333,448.088501 465.149872,440.691040
	C467.008789,437.587280 468.568756,434.687469 470.440521,432.005280
	C480.235779,417.969177 490.110168,403.988251 500.117126,389.690063
	C502.883698,386.213104 505.435974,382.987915 508.106720,379.864044
	C516.049622,370.573456 524.039246,361.322662 532.309937,351.895355
	C535.069702,349.148956 537.530151,346.563568 540.156494,344.307373
	C540.707031,346.451508 541.681641,348.370575 541.382568,350.064758
	C539.088989,363.055908 537.867126,375.760468 543.093506,388.611023
	C545.825928,395.329437 546.732666,402.863037 547.922974,410.117218
	C549.359619,418.872681 550.058533,427.748840 551.476257,436.508118
	C551.751404,438.207855 553.802673,439.663483 555.139221,441.136810
	C556.743835,442.905670 558.460510,444.572845 560.128662,446.284058
	C540.997803,464.509003 521.831726,482.697266 502.750488,500.974060
	C492.928406,510.381989 483.257294,519.947510 473.049774,529.891479
	C472.427673,530.751343 472.273804,531.161682 472.119904,531.571960
z" />
<path fill="#EC5339" opacity="1.000000" stroke="none"
		d="
M389.387207,623.917114
	C385.309448,622.636169 386.504883,619.183044 387.533630,617.405273
	C393.791351,606.591370 392.065094,594.832825 391.892212,583.349487
	C391.725586,572.282227 391.000061,561.193359 389.829956,550.187317
	C389.413727,546.272400 386.913300,542.594482 385.476044,538.766418
	C384.726929,536.771118 381.817291,534.344727 386.648682,533.001038
	C387.337311,531.340271 387.990265,529.675232 387.900024,528.051514
	C386.344788,500.067932 385.066101,472.011353 389.178253,444.211792
	C392.266296,423.335754 397.154968,402.724915 401.322052,382.012146
	C401.606964,380.596100 402.562592,379.315033 403.669586,378.143005
	C410.487366,400.298859 416.028137,422.560913 423.417999,444.191223
	C431.306274,467.280243 434.385132,490.867004 434.716461,515.263245
	C434.293243,516.165894 433.986053,516.819336 434.045532,517.437622
	C435.771179,535.371216 435.682617,553.158447 430.386230,570.630859
	C430.025848,571.819763 431.338074,573.515625 431.872375,574.975708
	C421.641968,586.453430 411.404083,597.924561 401.185913,609.413147
	C398.234863,612.731201 395.340332,616.099548 391.996155,619.879517
	C391.377258,620.861267 391.182068,621.408325 390.986877,621.955444
	C390.541229,622.568848 390.095581,623.182251 389.387207,623.917114
z" />
<path fill="#EC5439" opacity="1.000000" stroke="none"
		d="
M605.068298,324.970490
	C605.947205,323.865753 607.094849,322.883942 607.664734,321.637878
	C616.539978,302.232269 625.340454,282.792480 634.759033,263.060028
	C636.493896,262.089386 637.640747,261.439819 638.760071,260.746002
	C651.511230,252.841965 664.258240,244.931152 677.231934,237.270569
	C679.155090,237.410767 680.852600,237.302536 683.015869,237.164612
	C681.140137,243.270142 679.081604,248.638245 677.922729,254.194000
	C677.100525,258.135773 677.324036,262.332947 677.373047,266.412598
	C677.562378,282.187927 677.801941,297.963501 678.182434,313.735107
	C678.269653,317.348450 677.677246,322.370544 679.706421,324.244720
	C683.521118,327.768219 682.738708,331.595947 683.144043,335.542206
	C664.243225,352.553497 645.347046,369.569916 626.439148,386.573273
	C619.552979,392.765778 612.638794,398.927185 605.396606,404.842407
	C605.739746,403.037811 606.352478,401.457001 607.122864,399.957153
	C608.603821,397.073792 610.174133,394.236328 611.948975,390.929718
	C605.647095,390.380463 604.994995,389.034760 607.077698,383.051300
	C608.513367,383.575989 609.941650,384.097992 612.091553,384.883728
	C611.297668,381.249390 610.226074,378.298645 610.097107,375.307251
	C609.889771,370.497894 611.174377,365.558350 605.971741,362.137238
	C604.695618,361.298065 604.361755,358.561859 604.157471,356.638031
	C603.320007,348.752838 602.393555,340.853088 602.172913,332.939911
	C602.099731,330.312378 604.045532,327.628571 605.068298,324.970490
z" />
<path fill="#EC453C" opacity="1.000000" stroke="none"
		d="
M890.900757,85.888710
	C890.032104,89.375839 889.566650,93.026413 888.229858,96.323807
	C879.028259,119.021988 867.284363,140.380676 853.585205,160.659973
	C847.953735,168.996307 842.050110,177.148865 835.747192,185.748383
	C834.801819,187.079391 834.379517,188.047012 833.957153,189.014633
	C833.957153,189.014633 834.004944,189.025772 834.014343,189.003922
	C832.973999,189.638016 831.673523,190.081329 830.910645,190.980606
	C801.821777,225.269409 769.712158,256.594025 736.403687,286.785950
	C736.266113,283.670135 734.991455,280.619080 738.554993,278.571960
	C742.114563,276.527130 744.513184,273.622223 740.799744,269.468414
	C740.390076,269.010071 740.197266,268.266022 740.109009,267.626160
	C739.049988,259.947662 738.537109,252.149063 736.834595,244.618530
	C735.534180,238.866425 736.494507,231.359833 728.144958,229.060715
	C727.120422,221.869614 732.421265,217.281326 735.879700,210.654495
	C733.272827,210.946228 731.194275,211.090714 729.148254,211.430725
	C726.738159,211.831223 724.356262,212.401093 722.151489,212.639664
	C723.620728,211.609268 724.900513,210.836746 726.528320,210.021332
	C733.919983,206.634842 741.032104,203.426437 747.985352,199.904434
	C753.440491,197.141266 758.699158,193.990204 764.413025,190.977753
	C781.553040,183.687653 797.368774,174.741089 812.573120,164.081299
	C813.552429,163.876266 814.267517,163.821396 814.803162,163.482742
	C839.536804,147.844467 859.968018,127.596634 877.672180,104.482376
	C882.294556,98.447472 886.502502,92.095215 890.900757,85.888710
z" />
<path fill="#ED5F37" opacity="1.000000" stroke="none"
		d="
M605.091797,324.555298
	C604.045532,327.628571 602.099731,330.312378 602.172913,332.939911
	C602.393555,340.853088 603.320007,348.752838 604.157471,356.638031
	C604.361755,358.561859 604.695618,361.298065 605.971741,362.137238
	C611.174377,365.558350 609.889771,370.497894 610.097107,375.307251
	C610.226074,378.298645 611.297668,381.249390 612.091553,384.883728
	C609.941650,384.097992 608.513367,383.575989 607.077698,383.051300
	C604.994995,389.034760 605.647095,390.380463 611.948975,390.929718
	C610.174133,394.236328 608.603821,397.073792 607.122864,399.957153
	C606.352478,401.457001 605.739746,403.037811 605.087646,404.999664
	C590.327454,418.941071 575.535400,432.464905 560.435974,446.136353
	C558.460510,444.572845 556.743835,442.905670 555.139221,441.136810
	C553.802673,439.663483 551.751404,438.207855 551.476257,436.508118
	C550.058533,427.748840 549.359619,418.872681 547.922974,410.117218
	C546.732666,402.863037 545.825928,395.329437 543.093506,388.611023
	C537.867126,375.760468 539.088989,363.055908 541.382568,350.064758
	C541.681641,348.370575 540.707031,346.451508 540.304504,344.011169
	C544.047729,339.660339 547.754028,335.877563 551.581177,332.221313
	C559.692139,324.472656 567.866150,316.789948 576.312500,308.921722
	C585.407898,301.512207 594.205200,294.261139 603.063721,287.364563
	C604.794434,290.166656 606.463806,292.614227 608.133301,295.061798
	C608.145996,295.499054 608.158752,295.936310 607.692993,296.768524
	C606.505920,299.027985 605.797424,300.892517 605.102539,302.721039
	C595.156738,300.985016 589.792603,305.855408 590.363647,316.080048
	C590.524292,318.956848 592.214844,321.279358 595.201599,319.635193
	C598.765137,317.673523 601.722412,318.259979 604.887512,319.995514
	C604.963440,321.377045 605.039368,322.758545 605.091797,324.555298
z" />
<path fill="#E83E40" opacity="1.000000" stroke="none"
		d="
M313.358246,484.533630
	C313.810699,484.579620 314.030609,485.114868 314.173157,485.095001
	C321.292480,484.102112 319.504852,489.276245 320.134308,493.221130
	C321.487640,501.702728 323.489685,510.079834 324.890259,518.555237
	C326.155304,526.210754 326.851044,533.958984 328.027679,541.631104
	C328.948242,547.633484 330.294434,553.569336 331.311096,559.558594
	C332.000702,563.621338 332.152283,567.793518 333.076447,571.793884
	C334.252716,576.885498 336.303009,581.783325 337.360352,586.892212
	C338.589722,592.831909 338.957764,598.945923 340.068604,604.915649
	C340.880310,609.277649 342.288269,613.528748 343.431183,617.829102
	C343.601532,618.470093 343.998047,619.140930 343.913849,619.745667
	C343.049713,625.952881 344.325623,631.765442 346.999146,637.730957
	C327.752289,630.932251 308.438599,623.905334 289.278717,616.481445
	C281.687225,613.539917 274.503693,609.561462 267.004456,606.359436
	C263.205841,604.737549 262.405273,602.631653 263.371063,598.637573
	C269.471558,573.409119 278.904236,549.408020 290.383087,526.243835
	C297.376221,512.131836 305.483032,498.571838 313.358246,484.533630
z" />
<path fill="#F0852E" opacity="1.000000" stroke="none"
		d="
M435.003357,514.997681
	C434.385132,490.867004 431.306274,467.280243 423.417999,444.191223
	C416.028137,422.560913 410.487366,400.298859 403.975067,377.929565
	C407.987000,372.606659 411.992706,367.518646 416.356262,362.758698
	C431.274200,346.485748 446.317871,330.328064 461.780487,314.352661
	C462.164948,319.979553 462.260986,325.390198 461.959076,330.778534
	C461.478699,339.352051 460.903442,347.927704 460.050598,356.470764
	C459.231964,364.670990 457.826233,372.813171 457.035034,381.015289
	C456.582184,385.709717 456.841278,390.472748 456.777618,395.204865
	C456.744965,397.630341 456.251465,400.155212 456.754852,402.463135
	C458.469055,410.321808 460.668854,418.073975 462.415955,425.926270
	C463.521423,430.894592 464.151489,435.968750 464.994781,440.995422
	C461.353333,448.088501 457.711884,455.181610 453.762451,462.858032
	C451.307648,468.445740 448.853119,473.343536 447.075653,478.475830
	C442.880127,490.590393 439.006927,502.816620 435.003357,514.997681
z" />
<path fill="#EC4B3A" opacity="1.000000" stroke="none"
		d="
M721.962097,212.897522
	C724.356262,212.401093 726.738159,211.831223 729.148254,211.430725
	C731.194275,211.090714 733.272827,210.946228 735.879700,210.654495
	C732.421265,217.281326 727.120422,221.869614 728.144958,229.060715
	C736.494507,231.359833 735.534180,238.866425 736.834595,244.618530
	C738.537109,252.149063 739.049988,259.947662 740.109009,267.626160
	C740.197266,268.266022 740.390076,269.010071 740.799744,269.468414
	C744.513184,273.622223 742.114563,276.527130 738.554993,278.571960
	C734.991455,280.619080 736.266113,283.670135 736.096680,286.943420
	C735.700256,287.911865 735.266418,288.425812 734.296387,289.104431
	C733.530762,289.588898 733.301331,289.908661 733.071899,290.228424
	C721.340759,300.758331 709.575317,311.250458 697.894897,321.836365
	C693.091492,326.189636 688.471130,330.744904 683.455750,335.375244
	C682.738708,331.595947 683.521118,327.768219 679.706421,324.244720
	C677.677246,322.370544 678.269653,317.348450 678.182434,313.735107
	C677.801941,297.963501 677.562378,282.187927 677.373047,266.412598
	C677.324036,262.332947 677.100525,258.135773 677.922729,254.194000
	C679.081604,248.638245 681.140137,243.270142 683.015869,237.164612
	C680.852600,237.302536 679.155090,237.410767 677.441162,237.000031
	C692.270508,228.619888 707.116272,220.758698 721.962097,212.897522
z" />
<path fill="#E63F42" opacity="1.000000" stroke="none"
		d="
M256.190308,667.785889
	C256.162476,664.002441 256.162476,660.687805 256.162476,657.497375
	C283.627136,667.420654 311.101135,677.347351 338.777588,687.347168
	C318.038269,714.846924 297.242920,742.421021 275.874359,770.755066
	C265.868591,736.810364 259.229675,702.892334 256.190308,667.785889
z" />
<path fill="#F18D2C" opacity="1.000000" stroke="none"
		d="
M465.149872,440.691040
	C464.151489,435.968750 463.521423,430.894592 462.415955,425.926270
	C460.668854,418.073975 458.469055,410.321808 456.754852,402.463135
	C456.251465,400.155212 456.744965,397.630341 456.777618,395.204865
	C456.841278,390.472748 456.582184,385.709717 457.035034,381.015289
	C457.826233,372.813171 459.231964,364.670990 460.050598,356.470764
	C460.903442,347.927704 461.478699,339.352051 461.959076,330.778534
	C462.260986,325.390198 462.164948,319.979553 462.082947,314.194763
	C462.374634,313.255829 462.830750,312.701111 463.798737,311.961060
	C464.543732,311.507294 464.776886,311.238831 465.010071,310.970398
	C476.140320,300.439270 487.270569,289.908173 498.701355,279.684204
	C498.973969,281.488312 499.023163,282.991333 498.906372,284.481354
	C497.619141,300.903564 495.821960,317.304321 495.160767,333.751007
	C494.675293,345.826752 495.624237,357.963593 496.053131,370.069000
	C496.116211,371.849152 496.448792,373.838226 497.333832,375.328491
	C499.686707,379.290497 500.302124,383.242584 498.755981,387.622528
	C498.552826,388.198029 499.527710,389.189362 499.956970,389.988098
	C490.110168,403.988251 480.235779,417.969177 470.440521,432.005280
	C468.568756,434.687469 467.008789,437.587280 465.149872,440.691040
z" />
<path fill="#F5A223" opacity="1.000000" stroke="none"
		d="
M603.002441,287.010071
	C594.205200,294.261139 585.407898,301.512207 576.314697,308.511597
	C578.117188,302.436707 577.750916,296.878571 575.653137,290.940765
	C573.058777,283.597504 571.045166,275.950287 569.772217,268.270020
	C568.739014,262.035797 568.744263,255.537384 569.066162,249.195618
	C569.412964,242.363632 563.654236,233.416916 557.828918,232.983109
	C579.492065,217.404953 602.871399,204.883896 627.223206,194.111420
	C631.470703,192.232452 635.838135,190.624557 640.653381,189.023376
	C641.156555,189.155304 641.420349,189.411285 641.420349,189.411285
	C636.906067,199.587509 632.176514,209.674713 627.923645,219.959030
	C619.754272,239.713913 614.506775,260.340576 609.837036,281.739014
	C607.247742,283.820435 605.125122,285.415253 603.002441,287.010071
z" />
<path fill="#F29926" opacity="1.000000" stroke="none"
		d="
M557.515198,233.090057
	C563.654236,233.416916 569.412964,242.363632 569.066162,249.195618
	C568.744263,255.537384 568.739014,262.035797 569.772217,268.270020
	C571.045166,275.950287 573.058777,283.597504 575.653137,290.940765
	C577.750916,296.878571 578.117188,302.436707 576.016541,308.670044
	C567.866150,316.789948 559.692139,324.472656 551.581177,332.221313
	C547.754028,335.877563 544.047729,339.660339 540.138550,343.681946
	C537.530151,346.563568 535.069702,349.148956 532.307007,351.489441
	C533.471619,346.794678 535.448792,342.273743 530.155579,338.811188
	C529.975891,338.693634 530.039978,338.179718 530.017700,337.848694
	C529.249878,326.437866 525.676392,315.343475 526.902893,303.669983
	C528.300293,290.370270 529.131348,277.003510 529.857422,263.646820
	C530.011902,260.805298 528.652832,257.881500 527.991089,254.995590
	C537.727905,247.729401 547.464661,240.463211 557.515198,233.090057
z" />
<path fill="#F19329" opacity="1.000000" stroke="none"
		d="
M527.674438,255.108994
	C528.652832,257.881500 530.011902,260.805298 529.857422,263.646820
	C529.131348,277.003510 528.300293,290.370270 526.902893,303.669983
	C525.676392,315.343475 529.249878,326.437866 530.017700,337.848694
	C530.039978,338.179718 529.975891,338.693634 530.155579,338.811188
	C535.448792,342.273743 533.471619,346.794678 532.007690,351.650421
	C524.039246,361.322662 516.049622,370.573456 508.106720,379.864044
	C505.435974,382.987915 502.883698,386.213104 500.117126,389.690063
	C499.527710,389.189362 498.552826,388.198029 498.755981,387.622528
	C500.302124,383.242584 499.686707,379.290497 497.333832,375.328491
	C496.448792,373.838226 496.116211,371.849152 496.053131,370.069000
	C495.624237,357.963593 494.675293,345.826752 495.160767,333.751007
	C495.821960,317.304321 497.619141,300.903564 498.906372,284.481354
	C499.023163,282.991333 498.973969,281.488312 499.003693,279.556580
	C508.456268,271.155365 517.906982,263.188873 527.674438,255.108994
z" />
<path fill="#F5A223" opacity="1.000000" stroke="none"
		d="
M722.151489,212.639648
	C707.116272,220.758698 692.270508,228.619888 677.215515,236.751617
	C664.258240,244.931152 651.511230,252.841965 638.760071,260.746002
	C637.640747,261.439819 636.493896,262.089386 635.002197,262.837189
	C648.279419,234.296692 664.684998,207.325790 682.394287,181.058090
	C687.483093,173.509995 693.253479,168.602753 702.268738,167.169342
	C707.335327,166.363770 712.250549,164.606323 717.554138,163.641113
	C717.161926,166.529938 716.088989,169.016983 715.815002,171.589127
	C715.302185,176.404587 714.870483,181.288361 715.110168,186.108627
	C715.387268,191.681778 719.804382,196.564590 718.037720,202.624237
	C717.285767,205.203140 716.979492,207.911987 716.474609,210.541428
	C719.993164,210.368423 723.086731,210.216309 726.180298,210.064209
	C724.900513,210.836746 723.620728,211.609268 722.151489,212.639648
z" />
<path fill="#F18D2C" opacity="1.000000" stroke="none"
		d="
M337.098480,405.192322
	C335.537292,405.854431 334.031067,406.878540 332.406799,407.125214
	C299.190826,412.169678 266.424683,419.104736 234.897934,430.959534
	C224.663940,434.807739 214.765594,439.548584 204.256744,443.496216
	C199.229431,443.394043 194.327789,442.717987 190.157547,444.158813
	C181.416092,447.178986 173.194122,451.672913 164.518494,454.919342
	C142.519699,463.151398 120.403969,471.072662 98.299797,479.020294
	C92.262344,481.191071 86.100143,483.014862 80.000305,484.621765
	C83.336746,478.830414 86.668076,473.415222 90.412766,468.000488
	C91.982857,467.918793 93.217751,468.072662 94.284676,467.719299
	C112.528671,461.677704 130.898331,455.974213 148.943253,449.383057
	C172.430405,440.804108 195.682404,431.576721 218.979736,422.485229
	C226.837601,419.418823 234.374496,415.904633 243.192276,415.712585
	C247.787460,415.612457 252.386292,413.149933 256.848572,411.408722
	C257.855988,411.015656 258.301788,409.183258 259.420593,408.000061
	C265.054352,407.294220 270.254608,406.350891 275.496277,405.954376
	C294.235352,404.536743 312.983307,403.212250 331.744995,402.156677
	C333.467102,402.059784 335.311096,404.128967 337.098480,405.192322
z" />
<path fill="#F8A528" opacity="1.000000" stroke="none"
		d="
M337.444214,405.129456
	C335.311096,404.128967 333.467102,402.059784 331.744995,402.156677
	C312.983307,403.212250 294.235352,404.536743 275.496277,405.954376
	C270.254608,406.350891 265.054352,407.294220 258.991455,407.995056
	C252.586304,408.781647 246.943253,409.192566 241.478165,410.405304
	C223.227554,414.455322 204.882965,418.217712 186.868118,423.160797
	C162.711502,429.789154 138.714188,437.146332 116.398849,448.879608
	C106.718651,453.969360 97.063957,459.234406 89.999390,468.000000
	C86.668076,473.415222 83.336746,478.830414 79.730446,484.859985
	C78.732422,487.955994 78.009369,490.437592 77.286308,492.919220
	C74.346992,478.507080 78.690369,466.239624 88.691620,455.914215
	C102.430801,441.729706 119.708618,433.120728 137.765213,426.025940
	C171.308105,412.846344 206.409668,406.284088 242.045349,402.159546
	C273.349243,398.536407 304.767609,397.601440 336.250549,398.230499
	C338.696991,398.279388 341.145233,398.236969 343.592651,398.236969
	C343.781921,398.674042 343.971191,399.111145 344.160461,399.548218
	C342.036957,401.387695 339.913452,403.227142 337.444214,405.129456
z" />
<path fill="#ED5F37" opacity="1.000000" stroke="none"
		d="
M434.716431,515.263245
	C439.006927,502.816620 442.880127,490.590393 447.075653,478.475830
	C448.853119,473.343536 451.307648,468.445740 453.724304,463.218231
	C453.451172,468.700775 456.042664,472.169373 460.952606,475.120148
	C462.659668,476.146027 462.604340,480.566254 462.852478,483.478943
	C463.998352,496.929077 465.205261,510.382935 465.851379,523.861267
	C466.038788,527.770752 464.357849,531.752930 463.717468,535.731506
	C463.567780,536.661377 464.167542,537.711853 464.725616,538.859436
	C458.356567,546.277832 451.684387,553.543701 444.360657,560.966919
	C443.126953,562.038330 442.544800,562.952393 441.962708,563.866394
	C439.637177,566.513428 437.311676,569.160400 434.338135,571.965698
	C433.110657,573.044495 432.531158,573.964905 431.951660,574.885254
	C431.951630,574.885254 431.959839,574.972412 431.916107,574.974060
	C431.338074,573.515625 430.025848,571.819763 430.386230,570.630859
	C435.682617,553.158447 435.771179,535.371216 434.045532,517.437622
	C433.986053,516.819336 434.293243,516.165894 434.716431,515.263245
z" />
<path fill="#F18D2C" opacity="1.000000" stroke="none"
		d="
M812.225220,164.099091
	C797.368774,174.741089 781.553040,183.687653 763.953735,190.973969
	C758.093933,191.503143 753.669495,191.362579 754.794800,184.186081
	C754.947632,183.211426 753.732727,182.096695 753.557922,180.982956
	C752.933167,177.003433 752.488220,172.995850 751.966736,168.999969
	C751.351807,164.287430 754.313293,159.062531 749.946716,154.887238
	C767.378296,149.600555 784.809937,144.313873 802.771729,139.353409
	C803.859192,141.385147 804.830505,143.074631 804.897278,144.799149
	C805.111938,150.345963 805.054810,155.906570 804.976624,161.460098
	C804.936768,164.291962 805.832214,165.559280 808.829712,164.595123
	C809.903625,164.249695 811.090088,164.254272 812.225220,164.099091
z" />
<path fill="#DF344A" opacity="1.000000" stroke="none"
		d="
M180.581772,566.746399
	C212.072540,598.978638 249.902679,622.390991 288.617218,644.708496
	C240.689484,626.064941 193.418884,606.142334 150.527771,577.274902
	C152.474930,577.055603 154.460693,577.646545 155.975281,577.047119
	C164.241425,573.775146 172.391663,570.210449 180.581772,566.746399
z" />
<path fill="#F0852E" opacity="1.000000" stroke="none"
		d="
M77.258469,493.291992
	C78.009369,490.437592 78.732422,487.955994 79.725334,485.236145
	C86.100143,483.014862 92.262344,481.191071 98.299797,479.020294
	C120.403969,471.072662 142.519699,463.151398 164.518494,454.919342
	C173.194122,451.672913 181.416092,447.178986 190.157547,444.158813
	C194.327789,442.717987 199.229431,443.394043 203.897751,443.484924
	C189.561111,451.262360 176.686295,460.731964 165.024750,472.883209
	C161.724762,473.900421 159.141403,474.805756 156.541061,475.659241
	C132.694046,483.486633 108.865952,491.373657 84.953667,498.996490
	C83.029099,499.610046 80.519531,498.388489 78.281815,498.019714
	C77.931412,496.568054 77.581017,495.116394 77.258469,493.291992
z" />
<path fill="#F29926" opacity="1.000000" stroke="none"
		d="
M749.610107,154.877228
	C754.313293,159.062531 751.351807,164.287430 751.966736,168.999969
	C752.488220,172.995850 752.933167,177.003433 753.557922,180.982956
	C753.732727,182.096695 754.947632,183.211426 754.794800,184.186081
	C753.669495,191.362579 758.093933,191.503143 763.585815,191.007706
	C758.699158,193.990204 753.440491,197.141266 747.985352,199.904434
	C741.032104,203.426437 733.919983,206.634842 726.528320,210.021332
	C723.086731,210.216309 719.993164,210.368423 716.474609,210.541428
	C716.979492,207.911987 717.285767,205.203140 718.037720,202.624237
	C719.804382,196.564590 715.387268,191.681778 715.110168,186.108627
	C714.870483,181.288361 715.302185,176.404587 715.815002,171.589127
	C716.088989,169.016983 717.161926,166.529938 717.933472,163.634308
	C718.417236,163.124603 718.841858,162.985092 719.753906,163.093887
	C720.825378,162.957642 721.409424,162.573074 721.993408,162.188507
	C729.720581,160.101212 737.447693,158.013947 745.722839,156.162415
	C746.847900,156.026184 747.424988,155.654221 748.002075,155.282257
	C748.425903,155.143890 748.849731,155.005539 749.610107,154.877228
z" />
<path fill="#F0852E" opacity="1.000000" stroke="none"
		d="
M812.573120,164.081299
	C811.090088,164.254272 809.903625,164.249695 808.829712,164.595123
	C805.832214,165.559280 804.936768,164.291962 804.976624,161.460098
	C805.054810,155.906570 805.111938,150.345963 804.897278,144.799149
	C804.830505,143.074631 803.859192,141.385147 803.149231,139.337997
	C816.224243,132.844757 829.794434,127.325653 842.599487,120.393166
	C861.765381,110.017006 877.860779,95.565483 892.835327,79.385544
	C892.431152,81.214127 891.747620,83.211243 890.982422,85.548538
	C886.502502,92.095215 882.294556,98.447472 877.672180,104.482376
	C859.968018,127.596634 839.536804,147.844467 814.803162,163.482742
	C814.267517,163.821396 813.552429,163.876266 812.573120,164.081299
z" />
<path fill="#EC7732" opacity="1.000000" stroke="none"
		d="
M78.276970,498.389160
	C80.519531,498.388489 83.029099,499.610046 84.953667,498.996490
	C108.865952,491.373657 132.694046,483.486633 156.541061,475.659241
	C159.141403,474.805756 161.724762,473.900421 164.732635,473.033691
	C158.937210,480.855133 154.169388,489.375946 151.592285,499.636353
	C146.542938,500.222321 141.865524,499.657227 137.677811,500.834351
	C129.399780,503.161194 121.401886,506.478149 113.270950,509.336823
	C104.580643,512.392151 95.870499,515.391113 87.168999,518.414673
	C84.203377,511.862640 81.237747,505.310638 78.276970,498.389160
z" />
<path fill="#EE6834" opacity="1.000000" stroke="none"
		d="
M87.203575,518.563416
	C95.870499,515.391113 104.580643,512.392151 113.270950,509.336823
	C121.401886,506.478149 129.399780,503.161194 137.677811,500.834351
	C141.865524,499.657227 146.542938,500.222321 151.458252,499.999451
	C151.625336,503.985535 151.333099,507.971863 151.106964,512.632874
	C151.311401,513.604126 151.527298,513.824707 151.820786,513.969421
	C151.960297,515.052429 152.099792,516.135437 151.663040,517.607910
	C146.047958,518.835754 140.798508,519.041443 136.011200,520.635315
	C123.431297,524.823486 111.052582,529.616089 98.593719,534.167908
	C97.786491,533.305908 96.979248,532.443909 96.040588,530.961609
	C95.435982,529.931396 94.962799,529.521545 94.489624,529.111633
	C92.632393,526.747986 90.775162,524.384399 88.891434,521.302124
	C88.395699,520.030579 87.926476,519.477783 87.457253,518.924927
	C87.457253,518.924927 87.238152,518.712158 87.203575,518.563416
z" />
<path fill="#E63F42" opacity="1.000000" stroke="none"
		d="
M180.433105,566.458252
	C172.391663,570.210449 164.241425,573.775146 155.975281,577.047119
	C154.460693,577.646545 152.474930,577.055603 150.316589,577.010010
	C141.746948,571.185120 133.567383,565.364319 125.585953,559.265991
	C138.603897,554.625488 151.423676,550.262634 164.243469,545.899780
	C166.464310,548.928040 168.685150,551.956238 171.082428,555.590454
	C171.566895,556.444641 171.874939,556.692749 172.182983,556.940918
	C173.417313,558.309387 174.651657,559.677917 176.072479,561.627930
	C176.567245,562.454285 176.875504,562.698975 177.183777,562.943726
	C178.217316,564.019165 179.250870,565.094604 180.433105,566.458252
z" />
<path fill="#ED5F37" opacity="1.000000" stroke="none"
		d="
M98.740715,534.479370
	C111.052582,529.616089 123.431297,524.823486 136.011200,520.635315
	C140.798508,519.041443 146.047958,518.835754 151.526474,517.997559
	C153.544617,522.435974 155.123077,526.874146 156.506775,531.901489
	C154.442001,533.673096 152.717300,535.381836 150.676407,535.945374
	C142.587845,538.178467 134.318161,539.776367 126.279907,542.163086
	C121.345856,543.628113 116.710022,546.097595 111.940262,548.116028
	C107.589417,543.674255 103.238571,539.232544 98.740715,534.479370
z" />
<path fill="#E64F3F" opacity="1.000000" stroke="none"
		d="
M112.058487,548.430298
	C116.710022,546.097595 121.345856,543.628113 126.279907,542.163086
	C134.318161,539.776367 142.587845,538.178467 150.676407,535.945374
	C152.717300,535.381836 154.442001,533.673096 156.560486,532.262207
	C159.229691,536.425903 161.650421,540.817932 164.157318,545.554871
	C151.423676,550.262634 138.603897,554.625488 125.396141,558.993286
	C120.731018,555.580383 116.453857,552.162415 112.058487,548.430298
z" />
<path fill="#EC5439" opacity="1.000000" stroke="none"
		d="
M605.100159,319.623779
	C601.722412,318.259979 598.765137,317.673523 595.201599,319.635193
	C592.214844,321.279358 590.524292,318.956848 590.363647,316.080048
	C589.792603,305.855408 595.156738,300.985016 605.102539,302.721039
	C605.797424,300.892517 606.505920,299.027985 607.584839,297.081055
	C607.074402,304.416443 606.193604,311.834259 605.100159,319.623779
z" />
<path fill="#EC5439" opacity="1.000000" stroke="none"
		d="
M603.063721,287.364563
	C605.125122,285.415253 607.247742,283.820435 609.680908,282.090698
	C609.488892,286.088074 608.986267,290.220367 608.308472,294.707214
	C606.463806,292.614227 604.794434,290.166656 603.063721,287.364563
z" />
<path fill="#EC5339" opacity="1.000000" stroke="none"
		d="
M432.223938,574.732300
	C432.531158,573.964905 433.110657,573.044495 434.063354,572.129028
	C433.789764,572.949036 433.143005,573.764221 432.223938,574.732300
z" />
<path fill="#EC5339" opacity="1.000000" stroke="none"
		d="
M442.236938,563.718811
	C442.544800,562.952393 443.126953,562.038330 444.082550,561.130371
	C443.807709,561.947998 443.159424,562.759644 442.236938,563.718811
z" />
<path fill="#F5A223" opacity="1.000000" stroke="none"
		d="
M721.711243,162.164429
	C721.409424,162.573074 720.825378,162.957642 720.091187,163.100494
	C720.437073,162.619293 720.933044,162.379822 721.711243,162.164429
z" />
<path fill="#F18D2C" opacity="1.000000" stroke="none"
		d="
M747.724548,155.260986
	C747.424988,155.654221 746.847900,156.026184 746.120422,156.169250
	C746.462341,155.706802 746.954712,155.473267 747.724548,155.260986
z" />
<path fill="#D43072" opacity="1.000000" stroke="none"
		d="
M804.984619,383.978699
	C805.371338,383.448151 805.966797,383.140961 806.853394,382.983948
	C807.144470,383.134064 807.105103,383.105011 807.105103,383.105042
	C806.754883,383.500031 806.404663,383.895020 805.848877,384.453217
	C805.493469,384.478302 805.343506,384.340179 804.984619,383.978699
z" />
<path fill="#EB473C" opacity="1.000000" stroke="none"
		d="
M391.248779,621.796753
	C391.182068,621.408325 391.377258,620.861267 391.831818,620.167847
	C391.897675,620.560425 391.704163,621.099304 391.248779,621.796753
z" />
<path fill="#ED5F37" opacity="1.000000" stroke="none"
		d="
M94.615601,529.396118
	C94.962799,529.521545 95.435982,529.931396 95.953033,530.677124
	C95.578468,530.568848 95.160019,530.124695 94.615601,529.396118
z" />
<path fill="#EC7732" opacity="1.000000" stroke="none"
		d="
M87.524857,519.287048
	C87.926476,519.477783 88.395699,520.030579 88.861130,520.970947
	C88.435707,520.788696 88.014084,520.218933 87.524857,519.287048
z" />
<path fill="#ED5F37" opacity="1.000000" stroke="none"
		d="
M472.411469,531.386353
	C472.273804,531.161682 472.427673,530.751343 472.855713,530.150879
	C472.987549,530.374023 472.845306,530.787354 472.411469,531.386353
z" />
<path fill="#DF344A" opacity="1.000000" stroke="none"
		d="
M172.086304,556.660278
	C171.874939,556.692749 171.566895,556.444641 171.185135,555.900024
	C171.404160,555.862244 171.696884,556.120911 172.086304,556.660278
z" />
<path fill="#DF344A" opacity="1.000000" stroke="none"
		d="
M177.087280,562.664062
	C176.875504,562.698975 176.567245,562.454285 176.182419,561.915710
	C176.400848,561.876099 176.695831,562.130249 177.087280,562.664062
z" />
<path fill="#D43072" opacity="1.000000" stroke="none"
		d="
M807.161865,383.151764
	C807.176697,383.061249 807.174011,382.953064 807.138245,382.974915
	C807.105103,383.105011 807.144470,383.134064 807.161865,383.151764
z" />
<path fill="#ED5F37" opacity="1.000000" stroke="none"
		d="
M151.827545,513.716492
	C151.527298,513.824707 151.311401,513.604126 151.108246,513.081360
	C151.307022,513.057983 151.570663,513.260742 151.827545,513.716492
z" />
<path fill="#F0852E" opacity="1.000000" stroke="none"
		d="
M464.733276,311.013977
	C464.776886,311.238831 464.543732,311.507294 464.050995,311.855560
	C464.013092,311.642792 464.234772,311.350189 464.733276,311.013977
z" />
<path fill="#F5A223" opacity="1.000000" stroke="none"
		d="
M641.029358,189.022659
	C641.091125,188.731812 641.280090,188.573608 641.468994,188.415405
	C641.538391,188.645203 641.607727,188.875000 641.548706,189.258041
	C641.420349,189.411285 641.156555,189.155304 641.029358,189.022659
z" />
<path fill="#EC453C" opacity="1.000000" stroke="none"
		d="
M733.344177,290.116486
	C733.301331,289.908661 733.530762,289.588898 734.050964,289.182281
	C734.100037,289.398468 733.858276,289.701508 733.344177,290.116486
z" />
<path fill="#FDFCFD" opacity="1.000000" stroke="none"
		d="
M834.299072,189.008835
	C834.379517,188.047012 834.801819,187.079391 835.610413,186.056702
	C835.544861,187.002121 835.092957,188.002579 834.299072,189.008835
z" />
<path fill="#FDFCFD" opacity="1.000000" stroke="none"
		d="
M730.020447,347.007935
	C729.441772,347.253601 728.876282,347.518951 728.310791,347.784302
	C728.252991,347.611572 728.195190,347.438843 728.137329,347.266144
	C728.600403,347.199493 729.063416,347.132843 729.798035,347.062805
	C730.069580,347.059357 730.033691,347.027649 730.020447,347.007935
z" />
<path fill="#F19329" opacity="1.000000" stroke="none"
		d="
M90.412766,468.000488
	C97.063957,459.234406 106.718651,453.969360 116.398849,448.879608
	C138.714188,437.146332 162.711502,429.789154 186.868118,423.160797
	C204.882965,418.217712 223.227554,414.455322 241.478165,410.405304
	C246.943253,409.192566 252.586304,408.781647 258.576965,408.008423
	C258.301788,409.183258 257.855988,411.015656 256.848572,411.408722
	C252.386292,413.149933 247.787460,415.612457 243.192276,415.712585
	C234.374496,415.904633 226.837601,419.418823 218.979736,422.485229
	C195.682404,431.576721 172.430405,440.804108 148.943253,449.383057
	C130.898331,455.974213 112.528671,461.677704 94.284676,467.719299
	C93.217751,468.072662 91.982857,467.918793 90.412766,468.000488
z" />
</svg>
