<?xml version="1.0" encoding="UTF-8"?>
<svg id="Layer_1" xmlns="http://www.w3.org/2000/svg" version="1.1" viewBox="0 0 31.3 28.9">
  <!-- Generator: Adobe Illustrator 29.3.1, SVG Export Plug-In . SVG Version: 2.1.0 Build 151)  -->
  <path d="M25.8,2.7c-1,1.3-1.7,1.7-4.3,2.9-2.1.9-3.4,1.7-3.3,1.8,0,0,0,0,0,0,0,0-.2.3-.2.3,0,0,0,0,0,.1s0,.1,0,.2,0,0,0,0c0,0-.4.8-.4.9s0,.1,0,.1c0,0-.2.6-.1.6s0,.2,0,.5c0,.4-.1.7-.1.3s0,0,0,0c0,0,0,0,0,0,0,0,0-.2,0-.2,0,0,0-.2,0-.3,0-.2-.2-.4-.4-.3,0,0,0,.1,0,.1s0,0,0,0c0,0,0,0,.1,0,0,0,0,.1,0,.1s0,0,0,.2c0,.1,0,.2,0,.1,0,0,0,0,0,0q0,.1,0,0t0,0c0,.2,0,.2.1.3s0,.1,0,.1c0,0,0,0,0,0,0,0,0,0,0,0s0,.1,0,0,0,0,0,0c.1,0,0,0,0,.2-.2.1-.2.1-.1,0,0-.1-.2-.2-.3-.1s0,0,0,0c.1,0,.1,0,.1,0,0,0,0,.1,0,.1s0,0,0,.1c0,0,0,0,.1,0,0,0,0-.1,0-.1,0,0,0,0,0,0,.1,0,.5-.3.5-.4,0,0,0,0,.1,0,0,0,.4-.2.7-.5.3-.3.8-.7,1.1-.9,2.3-1.8,3.9-3.3,4.7-4.2.3-.3.5-.5.5-.5.1.1-1.8,2.2-3.2,3.5-.5.5-1,.9-.9,1,0,0,0,0,0,0,0,0-.3.2-.3.2,0,0,0,0,0,0,0,0-1.9,1.6-1.9,1.7,0,0,0,0,0,0,0,0-1.1.9-1.1,1,0,0,0,0,0,0-.2,0-3.7,3.3-5.5,5.2l-.7.8h.5c1.4.4,3.4.6,4.7.6h.8l.2-.5c.1-.3.2-.5.3-.5,0,0-.1,0-.5,0-.5,0-2.6.1-2.8,0-.1,0,.3-.1,1.1-.3.7-.1,1.2-.3,1.2-.3,0,0,0,0,0,0,.6.2,3.3-1.4,3.1-1.8,0,0,0,0,0,0,0,0,1.4-1.6,1.4-1.8s0,0,.1-.1c0,0,0,0,0,0,0,0,0,0,0,0s.1-.1.1-.2,0,0,0,0c.1,0,.2,0,0,0,0,0,0,0,0,0s.3-.2.3-.3c0,0,0,0,0,0,0,0,.1,0,0-.2,0,0,0,0,0,0,0,0,.2-.2.5-.5.2-.3.4-.5.3-.4-.1,0-.1,0,0,0,0,0,.1-.1.1-.1s0,0,0,0,0,0,.1-.1c0,0,0,0,0-.1,0,0,0-.1.1-.1,0,0,.1,0,.1,0,0,0-.5.2-.6.3,0,0,0,0-.1,0-.2,0-.9.3-.8.3,0,0,0,0,0,0,0,0-.4,0-.7,0-.5.1-.8.1-.4,0,.7-.2.9-.3.9-.4,0,0,0,0,0,0,.2,0,1.8-.8,1.7-1,0,0,0,0,0,0,0,0,.5-.2.4-.3,0,0,0,0,0,0,.1,0,.5-.4.4-.5,0,0,0,0,0,0,0,0,.1,0,.2-.2,0-.1,0-.2,0-.2s0,0,0-.1,0-.1,0-.2,0,0,0,0,0,0,0,0c0,0-.3,0-.6.2-.7.3-1.5.5-2.3.7-.9.2-1,.2-.3,0,.4-.1.5-.2.5-.2,0,0,0,0,0,0,.3,0,2.7-1,2.6-1.1,0,0,0,0,0,0,.3.1,1.2-1,1-1.2,0,0,0,0,0,0s0,0,0-.2c0-.1,0-.2,0-.1,0,0,.2-.3.1-.4,0,0,0,0,0,0,0,0,.2-.3.1-.5,0-.2,0-.2,0,0,0,.1,0,0,.1-.3.1-.5.2-1.7,0-1.4,0,.1,0,0,0-.2s0-.4,0-.4c0,0,0-.3,0-.5v-.4s-.3.4-.3.4h0Z"/>
  <path d="M16.8,8.7s0,.1,0,.1c-.1,0-.1,0,0,.1.2.1.3.1.4,0,0-.1,0-.1,0,0-.2,0-.3,0-.2-.1,0,0,0-.1,0-.1,0,0,0,0,0,0h0Z"/>
  <path d="M10.9,11.1c-.3,1-.3,1.3-.3,2.5s0,1.4-.3.7c-.2-.5-.4-1.4-.4-2.1,0-.3,0-.6,0-.6s-.2.2-.4.4c-1.1,1.3-2.2,3-2.6,4.3v.4c-.1,0,.1.1.1.1,1.2.5,3,1.1,3.1.9.1-.1,1.4-1.6,1.6-1.7,0,0,0-.1,0-.1,0,0,0,0,0,0s0,0,0,0,0-.1,0-.1c0,0,0,0,0,0s0,0,0,0c0,0,0-.1,0-.2s0-.2.1-.3c0,0,0-.1,0-.1,0,0,0,0,0,0s0,0,0,0,0,0-.1,0c0,0-.1,0-.1,0s0,0,0,0c0,0,0-.2,0-.2,0,0,0,0,.1,0s0,0,0,0c0-.3,0-.4,0-.4,0,0,0,0,0-.1,0,0-.1,0-.2,0,0,.1,0,0-.1-.5,0-.5-.1-.8-.4-1.7-.2-.6-.4-1.1-.4-1.2,0-.3-.2-.2-.3.2h0Z"/>
  <path d="M22.3,13.3c0,0,0,.1,0,.1,2.3,1.2,3.4,2.7,2.9,3.7-.7,1.2-3.8,2.1-7.5,2.3-1.2,0-1,.1.5.2,4.4.2,8.3-.5,9.4-1.6,1.2-1.2-.6-3-4.3-4.4-.8-.3-.8-.3-.9-.2h0Z"/>
  <path d="M3.1,14.6s0,0,0,0c-.3,0-.7.1-.6.2s-.3,0-.5,0c0,0,0,0,0,0,0,0,0,0,0,0-.2,0,0,.1.1.3.9.7,2.4,1.5,4.3,2.3.6.3.7.3.4,0-1.9-1.1-2.9-1.9-3.4-2.7-.1-.2-.2-.3-.3-.3s0,0,0,0h0Z"/>
  <path d="M6.6,18.5c.1,1,.4,2.5.6,2.7,0,0,.5-.5,1-1.1l.9-1.1-.9-.3c-.5-.2-1-.3-1.2-.4-.2,0-.4-.1-.4-.1s0,.1,0,.3h0Z"/>
  <path d="M9,20.6c-1.6,1.9-2.8,3.5-3.9,5.2-.2.2,0,.1,1-1,2.3-2.5,2.1-2.4,5.2-2.9,2-.4,2.9-.6,3.8-1.3.5-.4.5-.3-.5-.4-1.1-.1-2.5-.4-3.6-.6-.5-.1-.9-.2-.9-.2s-.5.6-1.1,1.3h0Z"/>
</svg>